# xmcd
#
# Track frame offsets: 
#        182
#        19497
#        35465
#        55232
#        75820
#        95645
#        109377
#        134412
#        153080
#        170950
#        191777
#        206922
#        217045
#        232227
#
# Disc length: 3278 seconds
#
# Revision: 2
# Processed by: cddbd v1.5.2PL0 Copyright (c) Steve Scherf et al.
# Submitted via: ExactAudioCopy v0.99pb4
#
DISCID=d10ccc0e
DTITLE=Long John Baldry - It Still Ain't Easy
DYEAR=1992
DGENRE=Blues
TTITLE0=It Still Ain't Easy
TTITLE1=Midnight in New Orleans
TTITLE2=One Step Ahead
TTITLE3=I Never Loved Nobody
TTITLE4=Get It While the Gettin's Good
TTITLE5=What've I Been Drinking
TTITLE6=Insane Asylum
TTITLE7=You Wanna Dance
TTITLE8=Shake That Thang
TTITLE9=Like You Promised
TTITLE10=Busker
TTITLE11=Can't Keep From Crying
TTITLE12=No More
TTITLE13=Soft and Furry
EXTD=
EXTT0=
EXTT1=
EXTT2=
EXTT3=
EXTT4=
EXTT5=
EXTT6=
EXTT7=
EXTT8=
EXTT9=
EXTT10=
EXTT11=
EXTT12=
EXTT13=
PLAYORDER=
